# This file uses centimeters as units for non-parametric coordinates.

mtllib cbox2.mtl
g default
v 549.599976 0.000000 559.200012
v 0.000000 0.000000 559.200012
v 0.000000 548.799988 559.200012
v 556.000000 548.799988 559.200012
vn 0.000000 0.000000 -1.000000
vn 0.000000 0.000000 -1.000000
vn 0.000000 0.000000 -1.000000
vn 0.000000 0.000000 -1.000000
s off
g cbox:cbox_back_mesh
usemtl cbox:white
f 1//1 2//2 3//3 4//4
g default
v 556.000000 548.799988 0.000000
v 556.000000 548.799988 559.200012
v 0.000000 548.799988 559.200012
v 0.000000 548.799988 0.000000
v 343.000000 548.799988 227.000000
v 343.000000 548.799988 332.000000
v 213.000000 548.799988 332.000000
v 213.000000 548.799988 227.000000
vn 0.000000 -1.000000 0.000000
vn 0.000000 -1.000000 0.000000
vn 0.000000 -1.000000 0.000000
vn 0.000000 -1.000000 0.000000
vn 0.000000 1.000000 0.000000
vn 0.000000 1.000000 0.000000
vn 0.000000 1.000000 0.000000
vn 0.000000 1.000000 0.000000
s off
g cbox:cbox_ceiling_mesh
usemtl cbox:white
f 5//5 6//6 7//7 8//8
f 12//9 11//10 10//11 9//12
g default
v 552.799988 0.000000 0.000000
v 0.000000 0.000000 0.000000
v 0.000000 0.000000 559.200012
v 549.599976 0.000000 559.200012
v 130.000000 0.000000 65.000000
v 82.000000 0.000000 225.000000
v 240.000000 0.000000 272.000000
v 290.000000 0.000000 114.000000
v 423.000000 0.000000 247.000000
v 265.000000 0.000000 296.000000
v 314.000000 0.000000 456.000000
v 472.000000 0.000000 406.000000
vn 0.000000 1.000000 0.000000
vn 0.000000 1.000000 0.000000
vn 0.000000 1.000000 0.000000
vn 0.000000 1.000000 0.000000
s off
g cbox:cbox_floor_mesh
usemtl cbox:white
f 13//13 14//14 15//15 16//16
g default
v 0.000000 0.000000 559.200012
v 0.000000 0.000000 0.000000
v 0.000000 548.799988 0.000000
v 0.000000 548.799988 559.200012
vn 1.000000 0.000000 0.000000
vn 1.000000 0.000000 0.000000
vn 1.000000 0.000000 0.000000
vn 1.000000 0.000000 0.000000
s off
g cbox:cbox_greenwall_mesh
usemtl cbox:blue
f 25//17 26//18 27//19 28//20
g default
v 343.000000 548.799988 227.000000
v 343.000000 548.799988 332.000000
v 213.000000 548.799988 332.000000
v 213.000000 548.799988 227.000000
vn 0.000000 -1.000000 0.000000
vn 0.000000 -1.000000 0.000000
vn 0.000000 -1.000000 0.000000
vn 0.000000 -1.000000 0.000000
s off
g cbox:cbox_luminaire_mesh
usemtl cbox:light
f 29//21 30//22 31//23 32//24
g default
v 552.799988 0.000000 0.000000
v 549.599976 0.000000 559.200012
v 556.000000 548.799988 559.200012
v 556.000000 548.799988 0.000000
vn -0.999958 0.008746 -0.002861
vn -0.999958 0.008746 -0.002861
vn -0.999958 0.008746 -0.002861
vn -0.999958 0.008746 -0.002861
s off
g cbox:cbox_redwall_mesh
usemtl cbox:red
f 33//25 34//26 35//27 36//28